<?xml version="1.0" encoding="utf-8"?>
<!-- Generator: Adobe Illustrator 25.4.1, SVG Export Plug-In . SVG Version: 6.00 Build 0)  -->
<svg version="1.1" id="Layer_1" xmlns="http://www.w3.org/2000/svg" xmlns:xlink="http://www.w3.org/1999/xlink" x="0px" y="0px"
	 viewBox="0 0 1000 695.21" style="enable-background:new 0 0 1000 695.21;" xml:space="preserve">
<style type="text/css">
	.st0{fill:none;stroke:#868686;stroke-width:6;stroke-linecap:round;stroke-miterlimit:10;stroke-dasharray:10.6662;}
	.st1{fill:none;stroke:#467AFF;stroke-width:6;stroke-linecap:round;stroke-miterlimit:10;}
</style>
<g>
	<path d="M5.48,300.11h19.4v3.72h-7.4v24.08h-4.56v-24.08H5.48V300.11z"/>
	<path d="M44.84,303.79h-10.8v8.16h9.6v3.72h-9.6v8.52h10.8v3.72H29.48v-27.84h15.36V303.79z"/>
	<path d="M49,300.11h19.4v3.72H61v24.08h-4.56v-24.08H49V300.11z"/>
	<path d="M82.6,300.11c6.6,0,9.84,3.8,9.84,8.32c0,3.28-1.76,6.8-6.44,7.96l6.88,11.52h-5.44l-6.4-11.12h-3.48v11.12H73v-27.8H82.6z
		 M82.6,303.83h-5.04v9.32h5.04c3.56,0,5.16-1.96,5.16-4.72C87.76,305.63,86.16,303.83,82.6,303.83z"/>
	<path d="M115.04,322.23H103.4l-2,5.68h-4.76l9.96-27.84h5.28l9.96,27.84h-4.8L115.04,322.23z M109.24,305.59l-4.56,12.92h9.08
		L109.24,305.59z"/>
	<path d="M143.8,315.75h-13.08v12.16h-4.56v-27.8h4.56v11.92h13.08v-11.92h4.56v27.8h-4.56V315.75z"/>
	<path d="M169.72,303.79h-10.8v8.16h9.6v3.72h-9.6v8.52h10.8v3.72h-15.36v-27.84h15.36V303.79z"/>
	<path d="M199.16,314.11c0,8.56-5.84,13.8-14.76,13.8h-9.08v-27.8h9.08C193.32,300.11,199.16,305.51,199.16,314.11z M184.4,324.19
		c6.56,0,10.08-3.76,10.08-10.08c0-6.36-3.52-10.28-10.08-10.28h-4.52v20.36H184.4z"/>
	<path d="M213.28,300.11c6.6,0,9.84,3.8,9.84,8.32c0,3.28-1.76,6.8-6.44,7.96l6.88,11.52h-5.44l-6.4-11.12h-3.48v11.12h-4.56v-27.8
		H213.28z M213.28,303.83h-5.04v9.32h5.04c3.56,0,5.16-1.96,5.16-4.72C218.44,305.63,216.84,303.83,213.28,303.83z"/>
	<path d="M241.64,328.19c-7.84,0-14.2-5.88-14.2-14.24c0-8.32,6.36-14.2,14.2-14.2c7.92,0,14.2,5.88,14.2,14.2
		C255.84,322.31,249.56,328.19,241.64,328.19z M241.64,324.23c5.52,0,9.52-4,9.52-10.28s-4-10.2-9.52-10.2
		c-5.52,0-9.52,3.92-9.52,10.2S236.12,324.23,241.64,324.23z"/>
	<path d="M283.16,300.07v27.84h-4.56l-13.72-20.76v20.76h-4.56v-27.84h4.56l13.72,20.72v-20.72H283.16z"/>
</g>
<g>
	<path d="M368.14,328.19c-7.84,0-14.2-5.88-14.2-14.24c0-8.32,6.36-14.2,14.2-14.2c7.92,0,14.2,5.88,14.2,14.2
		C382.33,322.31,376.05,328.19,368.14,328.19z M368.14,324.23c5.52,0,9.52-4,9.52-10.28s-4-10.2-9.52-10.2
		c-5.52,0-9.52,3.92-9.52,10.2S362.62,324.23,368.14,324.23z"/>
	<path d="M399.5,299.75c5.8,0,10.8,2.92,12.92,8.36h-5.48c-1.48-2.96-4.12-4.36-7.44-4.36c-5.52,0-9.52,3.92-9.52,10.2
		s4,10.24,9.52,10.24c3.32,0,5.96-1.4,7.44-4.36h5.48c-2.12,5.44-7.12,8.32-12.92,8.32c-7.84,0-14.2-5.84-14.2-14.2
		C385.3,305.63,391.66,299.75,399.5,299.75z"/>
	<path d="M416.3,300.11h19.4v3.72h-7.4v24.08h-4.56v-24.08h-7.44V300.11z"/>
	<path d="M457.06,322.23h-11.64l-2,5.68h-4.76l9.96-27.84h5.28l9.96,27.84h-4.8L457.06,322.23z M451.26,305.59l-4.56,12.92h9.08
		L451.26,305.59z"/>
	<path d="M485.81,315.75h-13.08v12.16h-4.56v-27.8h4.56v11.92h13.08v-11.92h4.56v27.8h-4.56V315.75z"/>
	<path d="M511.73,303.79h-10.8v8.16h9.6v3.72h-9.6v8.52h10.8v3.72h-15.36v-27.84h15.36V303.79z"/>
	<path d="M541.17,314.11c0,8.56-5.84,13.8-14.76,13.8h-9.08v-27.8h9.08C535.33,300.11,541.17,305.51,541.17,314.11z M526.42,324.19
		c6.56,0,10.08-3.76,10.08-10.08c0-6.36-3.52-10.28-10.08-10.28h-4.52v20.36H526.42z"/>
	<path d="M555.29,300.11c6.6,0,9.84,3.8,9.84,8.32c0,3.28-1.76,6.8-6.44,7.96l6.88,11.52h-5.44l-6.4-11.12h-3.48v11.12h-4.56v-27.8
		H555.29z M555.29,303.83h-5.04v9.32h5.04c3.56,0,5.16-1.96,5.16-4.72C560.45,305.63,558.85,303.83,555.29,303.83z"/>
	<path d="M583.65,328.19c-7.84,0-14.2-5.88-14.2-14.24c0-8.32,6.36-14.2,14.2-14.2c7.92,0,14.2,5.88,14.2,14.2
		C597.85,322.31,591.57,328.19,583.65,328.19z M583.65,324.23c5.52,0,9.52-4,9.52-10.28s-4-10.2-9.52-10.2
		c-5.52,0-9.52,3.92-9.52,10.2S578.13,324.23,583.65,324.23z"/>
	<path d="M625.17,300.07v27.84h-4.56l-13.72-20.76v20.76h-4.56v-27.84h4.56l13.72,20.72v-20.72H625.17z"/>
</g>
<g>
	<path d="M715.34,300.11h4.56v27.8h-4.56V300.11z"/>
	<path d="M738.58,299.75c5.8,0,10.8,2.92,12.92,8.36h-5.48c-1.48-2.96-4.12-4.36-7.44-4.36c-5.52,0-9.52,3.92-9.52,10.2
		s4,10.24,9.52,10.24c3.32,0,5.96-1.4,7.44-4.36h5.48c-2.12,5.44-7.12,8.32-12.92,8.32c-7.84,0-14.2-5.84-14.2-14.2
		C724.38,305.63,730.74,299.75,738.58,299.75z"/>
	<path d="M769.5,328.19c-7.84,0-14.2-5.88-14.2-14.24c0-8.32,6.36-14.2,14.2-14.2c7.92,0,14.2,5.88,14.2,14.2
		C783.69,322.31,777.41,328.19,769.5,328.19z M769.5,324.23c5.52,0,9.52-4,9.52-10.28s-4-10.2-9.52-10.2
		c-5.52,0-9.52,3.92-9.52,10.2S763.98,324.23,769.5,324.23z"/>
	<path d="M797.33,328.19c-5.56,0-9.84-3.04-9.84-7.96h4.88c0.2,2.28,1.8,4.12,4.96,4.12c3.2,0,5-1.72,5-4.08
		c0-6.72-14.76-2.36-14.76-12.6c0-4.88,3.88-7.92,9.56-7.92c5.32,0,9.08,2.8,9.48,7.56h-5.04c-0.16-1.88-1.8-3.6-4.68-3.68
		c-2.64-0.08-4.68,1.2-4.68,3.88c0,6.28,14.72,2.36,14.72,12.52C806.93,324.19,803.53,328.19,797.33,328.19z"/>
	<path d="M829.09,322.23h-11.64l-2,5.68h-4.76l9.96-27.84h5.28l9.96,27.84h-4.8L829.09,322.23z M823.29,305.59l-4.56,12.92h9.08
		L823.29,305.59z"/>
	<path d="M857.85,315.75h-13.08v12.16h-4.56v-27.8h4.56v11.92h13.08v-11.92h4.56v27.8h-4.56V315.75z"/>
	<path d="M883.77,303.79h-10.8v8.16h9.6v3.72h-9.6v8.52h10.8v3.72h-15.36v-27.84h15.36V303.79z"/>
	<path d="M913.21,314.11c0,8.56-5.84,13.8-14.76,13.8h-9.08v-27.8h9.08C907.37,300.11,913.21,305.51,913.21,314.11z M898.45,324.19
		c6.56,0,10.08-3.76,10.08-10.08c0-6.36-3.52-10.28-10.08-10.28h-4.52v20.36H898.45z"/>
	<path d="M927.33,300.11c6.6,0,9.84,3.8,9.84,8.32c0,3.28-1.76,6.8-6.44,7.96l6.88,11.52h-5.44l-6.4-11.12h-3.48v11.12h-4.56v-27.8
		H927.33z M927.33,303.83h-5.04v9.32h5.04c3.56,0,5.16-1.96,5.16-4.72C932.49,305.63,930.89,303.83,927.33,303.83z"/>
	<path d="M955.69,328.19c-7.84,0-14.2-5.88-14.2-14.24c0-8.32,6.36-14.2,14.2-14.2c7.92,0,14.2,5.88,14.2,14.2
		C969.89,322.31,963.61,328.19,955.69,328.19z M955.69,324.23c5.52,0,9.52-4,9.52-10.28s-4-10.2-9.52-10.2
		c-5.52,0-9.52,3.92-9.52,10.2S950.17,324.23,955.69,324.23z"/>
	<path d="M997.21,300.07v27.84h-4.56l-13.72-20.76v20.76h-4.56v-27.84h4.56l13.72,20.72v-20.72H997.21z"/>
</g>
<g>
	<path d="M568.01,678.52c0,8.56-5.84,13.8-14.76,13.8h-9.08v-27.79h9.08C562.17,664.52,568.01,669.92,568.01,678.52z M553.25,688.6
		c6.56,0,10.08-3.76,10.08-10.08c0-6.36-3.52-10.28-10.08-10.28h-4.52v20.36H553.25z"/>
	<path d="M585.21,692.6c-7.84,0-14.2-5.88-14.2-14.24c0-8.32,6.36-14.2,14.2-14.2c7.92,0,14.2,5.88,14.2,14.2
		C599.41,686.72,593.13,692.6,585.21,692.6z M585.21,688.64c5.52,0,9.52-4,9.52-10.28c0-6.28-4-10.2-9.52-10.2
		c-5.52,0-9.52,3.92-9.52,10.2C575.69,684.64,579.69,688.64,585.21,688.64z"/>
	<path d="M627.73,678.52c0,8.56-5.84,13.8-14.76,13.8h-9.08v-27.79h9.08C621.89,664.52,627.73,669.92,627.73,678.52z M612.97,688.6
		c6.56,0,10.08-3.76,10.08-10.08c0-6.36-3.52-10.28-10.08-10.28h-4.52v20.36H612.97z"/>
	<path d="M647.61,668.2h-10.8v8.16h9.6v3.72h-9.6v8.52h10.8v3.72h-15.36v-27.83h15.36V668.2z"/>
	<path d="M665.89,664.16c5.8,0,10.8,2.92,12.92,8.36h-5.48c-1.48-2.96-4.12-4.36-7.44-4.36c-5.52,0-9.52,3.92-9.52,10.2
		c0,6.28,4,10.24,9.52,10.24c3.32,0,5.96-1.4,7.44-4.36h5.48c-2.12,5.44-7.12,8.32-12.92,8.32c-7.84,0-14.2-5.84-14.2-14.2
		C651.69,670.04,658.05,664.16,665.89,664.16z"/>
	<path d="M700.89,686.64h-11.64l-2,5.68h-4.76l9.96-27.83h5.28l9.96,27.83h-4.8L700.89,686.64z M695.09,670l-4.56,12.92h9.08
		L695.09,670z"/>
	<path d="M729.65,680.16h-13.08v12.16h-4.56v-27.79h4.56v11.92h13.08v-11.92h4.56v27.79h-4.56V680.16z"/>
	<path d="M755.57,668.2h-10.8v8.16h9.6v3.72h-9.6v8.52h10.8v3.72h-15.36v-27.83h15.36V668.2z"/>
	<path d="M785.01,678.52c0,8.56-5.84,13.8-14.76,13.8h-9.08v-27.79h9.08C779.17,664.52,785.01,669.92,785.01,678.52z M770.25,688.6
		c6.56,0,10.08-3.76,10.08-10.08c0-6.36-3.52-10.28-10.08-10.28h-4.52v20.36H770.25z"/>
	<path d="M799.13,664.52c6.6,0,9.84,3.8,9.84,8.32c0,3.28-1.76,6.8-6.44,7.96l6.88,11.52h-5.44l-6.4-11.12h-3.48v11.12h-4.56v-27.79
		H799.13z M799.13,668.24h-5.04v9.32h5.04c3.56,0,5.16-1.96,5.16-4.72C804.29,670.04,802.69,668.24,799.13,668.24z"/>
	<path d="M827.49,692.6c-7.84,0-14.2-5.88-14.2-14.24c0-8.32,6.36-14.2,14.2-14.2c7.92,0,14.2,5.88,14.2,14.2
		C841.69,686.72,835.41,692.6,827.49,692.6z M827.49,688.64c5.52,0,9.52-4,9.52-10.28c0-6.28-4-10.2-9.52-10.2
		c-5.52,0-9.52,3.92-9.52,10.2C817.97,684.64,821.97,688.64,827.49,688.64z"/>
	<path d="M869.01,664.48v27.83h-4.56l-13.72-20.76v20.76h-4.56v-27.83h4.56l13.72,20.72v-20.72H869.01z"/>
</g>
<g>
	<path d="M271.69,664.16c5.8,0,10.8,2.92,12.92,8.36h-5.48c-1.48-2.96-4.12-4.36-7.44-4.36c-5.52,0-9.52,3.92-9.52,10.2
		c0,6.28,4,10.24,9.52,10.24c3.32,0,5.96-1.4,7.44-4.36h5.48c-2.12,5.44-7.12,8.32-12.92,8.32c-7.84,0-14.2-5.84-14.2-14.2
		C257.49,670.04,263.85,664.16,271.69,664.16z"/>
	<path d="M289.89,664.52h4.56v17.72c0,4.32,2.44,6.36,6.28,6.36c3.88,0,6.32-2.04,6.32-6.36v-17.72h4.56v17.64
		c0,7.08-5.12,10.44-10.92,10.44c-5.84,0-10.8-3.36-10.8-10.44V664.52z"/>
	<path d="M328.65,692.32h-11.12v-27.79h10.6c5.88,0,9,3.24,9,7.16c0,3.36-2.04,5.4-4.72,6.36c2.96,0.52,5.36,3.48,5.36,6.8
		C337.77,689.08,334.33,692.32,328.65,692.32z M327.73,668.24h-5.64v7.96h5.64c2.96,0,4.76-1.4,4.76-3.96
		C332.49,669.72,330.69,668.24,327.73,668.24z M328.09,679.92h-6v8.68h6.16c3.08,0,4.96-1.56,4.96-4.24
		C333.21,681.6,331.13,679.92,328.09,679.92z"/>
	<path d="M358.09,668.2h-10.8v8.16h9.6v3.72h-9.6v8.52h10.8v3.72h-15.36v-27.83h15.36V668.2z"/>
</g>
<g>
	<line class="st0" x1="268.66" y1="168.89" x2="21.43" y2="208.52"/>
	<line class="st1" x1="162.85" y1="4.62" x2="225.66" y2="277.72"/>
	<path class="st1" d="M21.87,208.68l203.47,68.94c0.18,0.06,0.38-0.03,0.45-0.21l42.81-108.35c0.04-0.11,0.03-0.23-0.03-0.32
		L163.14,5.07c-0.14-0.21-0.45-0.22-0.59-0.01L21.69,208.14C21.56,208.33,21.65,208.6,21.87,208.68z"/>
</g>
<g>
	<polyline class="st0" points="493.69,13.2 527.74,126.22 491.79,276.52 	"/>
	<path class="st0" d="M527.74,126.22l-165.27,11.84L527.74,126.22z"/>
	<line class="st0" x1="527.74" y1="126.22" x2="617.82" y2="151.73"/>
	<path class="st1" d="M492.08,13.94l-130.23,123c-0.66,0.62-0.69,1.65-0.07,2.31l128.27,137.16c0.63,0.67,1.68,0.7,2.34,0.05
		L618.83,153.2c0.63-0.62,0.66-1.62,0.07-2.28L494.42,14.03C493.81,13.35,492.75,13.31,492.08,13.94z"/>
	<polyline class="st1" points="491.19,277.63 458.21,163.32 493.3,12.8 	"/>
	<polyline class="st1" points="619.97,152.1 458.21,163.32 360.67,138.06 	"/>
</g>
<g>
	<polyline class="st0" points="857.08,11.71 855.47,46.23 784,171.98 737.98,212.27 	"/>
	<polyline class="st0" points="972.84,217.46 929.41,172.25 855.47,46.23 742.31,70.79 784,171.98 856.28,272.87 	"/>
	<line class="st0" x1="855.47" y1="46.23" x2="972.84" y2="73.42"/>
	<polyline class="st0" points="974.29,75.58 929.41,172.25 857.55,274.25 	"/>
	<line class="st0" x1="784" y1="171.98" x2="929.41" y2="172.25"/>
	<polygon class="st1" points="857.08,11.71 739.71,71.4 737.98,212.27 857.08,274.88 972.84,217.46 974.58,74.35 	"/>
	<polyline class="st1" points="739.71,71.4 787.53,114.58 927.82,114.54 974.58,74.35 	"/>
	<path class="st1" d="M971.68,214.79l-43.77-100.05c-0.06-0.13-0.13-0.26-0.21-0.38L859,14.5c-0.92-1.34-2.9-1.33-3.82,0.02
		l-67.58,99.95c-0.05,0.08-0.1,0.16-0.15,0.25l-48.14,94.9c-0.68,1.34,0.09,2.97,1.56,3.3l115.8,25.71c0.3,0.07,0.61,0.07,0.92,0.02
		l112.37-20.65C971.44,217.72,972.27,216.15,971.68,214.79z"/>
	<polyline class="st1" points="927.82,114.54 857.14,238.72 787.53,114.58 	"/>
	<line class="st1" x1="857.14" y1="274.88" x2="857.14" y2="238.72"/>
</g>
<g>
	<polyline class="st0" points="292.51,405.17 292.51,566.55 184.1,617.2 	"/>
	<line class="st0" x1="292.51" y1="566.55" x2="433.8" y2="591.32"/>
	<path class="st1" d="M184.1,617.2l140.09,24.99l109.61-50.87V431.07l-141.29-25.9L182.9,457.2v158.57
		C182.9,616.48,183.41,617.08,184.1,617.2z"/>
	<polyline class="st1" points="324.19,642.2 324.19,482 433.8,431.07 	"/>
	<line class="st1" x1="324.19" y1="482" x2="182.9" y2="457.2"/>
</g>
<g>
	<polyline class="st0" points="710.54,419.53 716.58,487.59 646.51,540.44 673.74,621.53 641.2,642.85 	"/>
	<line class="st0" x1="646.51" y1="540.44" x2="590.28" y2="507.57"/>
	<polyline class="st0" points="673.74,621.53 761.97,619.63 784.57,634.82 	"/>
	<polyline class="st0" points="761.97,619.63 786.47,536.39 716.58,487.59 	"/>
	<line class="st0" x1="786.47" y1="536.39" x2="825.39" y2="497.93"/>
	<polyline class="st1" points="773.95,426.84 740.67,447.87 651.89,447.87 630.64,434.6 	"/>
	<polyline class="st1" points="651.89,447.87 624.65,533.15 587.79,569.44 	"/>
	<line class="st1" x1="767.31" y1="531.74" x2="822.87" y2="562.11"/>
	<path class="st1" d="M708.74,419.6l-76,14.19c-1.85,0.35-3.45,1.51-4.35,3.17l-38.11,70.6c-0.46,0.85-0.72,1.8-0.75,2.77
		l-1.74,56.96c-0.04,1.36,0.36,2.69,1.14,3.79l49.12,69.45c1.09,1.55,2.83,2.51,4.73,2.63l61.24,3.63c0.43,0.03,0.86,0.01,1.28-0.06
		l77.71-11.49c2.01-0.3,3.74-1.55,4.66-3.36l34.85-68.98c0.41-0.81,0.63-1.69,0.67-2.59l2.18-61.36c0.05-1.39-0.37-2.76-1.19-3.89
		l-48.39-66.54c-1.04-1.43-2.63-2.35-4.39-2.53l-60.87-6.46C709.94,419.47,709.33,419.49,708.74,419.6z"/>
	<polyline class="st1" points="624.65,533.15 696.42,583.89 767.31,531.74 740.67,447.87 	"/>
	<line class="st1" x1="696.42" y1="583.89" x2="705.31" y2="646.74"/>
</g>
</svg>
